<svg xmlns="http://www.w3.org/2000/svg" width="500pt" height="500pt" preserveAspectRatio="xMidYMid" version="1.0" viewBox="0 0 500 500">
<g transform="matrix(.1 0 0 -.1 0 500)">
<path d="M2413 4169c-74-21-105-52-255-253-156-207-179-233-238-263-32-16-85-18-620-24-558-5-589-6-667-27-170-45-285-113-410-245-65-69-91-106-131-189-69-139-82-196-89-370l-6-148h550l5 108c4 95 8 114 33 161 16 29 47 68 68 87 76 64 72 64 676 64 599 1 637 4 775 59 162 65 304 181 403 330 1 2 55-50 120-115 119-120 182-166 291-210 146-59 131-57 747-63l570-6 53-29c61-34 108-89 129-149 8-23 17-86 20-139l6-98h550l-6 133c-8 153-31 258-82 366-110 230-300 388-550 453-75 20-113 22-645 27l-566 6-49 32c-29 19-119 112-227 235-181 204-230 249-297 268-44 12-114 12-158-1"/>
<circle cx="163.589" cy="250.184" r="36.5" style="fill:#1a1a1a;stroke-width:.782143" transform="matrix(10 0 0 -10 0 5000)"/>
<circle cx="3361.053" cy="-2505.395" r="365" style="fill:#1a1a1a;stroke-width:7.82143" transform="scale(1 -1)"/>
<path d="M0 2251c0-249 75-450 228-613 139-147 312-233 522-258 47-5 312-10 600-10 496 0 517-1 560-21 64-29 94-61 251-270 170-228 211-259 338-259 67 0 143 32 192 82 19 19 108 118 199 221 142 162 172 192 224 217l59 30h486c620 0 687 7 866 94q249 121.5 375 381c63 131 80 201 87 368l6 137h-550l-5-103c-4-78-11-114-29-151-28-62-79-112-138-140-45-20-62-21-611-27-553-5-567-6-640-29-173-53-286-125-419-267-79-85-93-96-102-80-5 9-37 48-70 87-107 124-256 218-417 263-74 20-103 21-667 26-584 6-590 6-631 28-66 35-101 70-130 130-23 46-28 72-32 159l-5 104H0z"/>
</g>
<style>
        path { fill: #000; }
        @media (prefers-color-scheme: dark) {
            path { fill: #FFF; }
        }
    </style>
</svg>
